<?xml version="1.0" encoding="UTF-8"?>
<svg xmlns="http://www.w3.org/2000/svg" viewBox="0 0 512 512">
  <defs>
    <linearGradient id="obsidianGrad" x1="0%" y1="0%" x2="0%" y2="100%">
      <stop offset="0%" style="stop-color:#141414"/>
      <stop offset="100%" style="stop-color:#0a0a0b"/>
    </linearGradient>
    <linearGradient id="goldGrad" x1="0%" y1="0%" x2="100%" y2="100%">
      <stop offset="0%" style="stop-color:#f0dc8c"/>
      <stop offset="50%" style="stop-color:#d4af37"/>
      <stop offset="100%" style="stop-color:#b8962e"/>
    </linearGradient>
    <filter id="glow">
      <feGaussianBlur stdDeviation="2" result="coloredBlur"/>
      <feMerge>
        <feMergeNode in="coloredBlur"/>
        <feMergeNode in="SourceGraphic"/>
      </feMerge>
    </filter>
  </defs>
  
  <!-- Background -->
  <rect width="512" height="512" fill="url(#obsidianGrad)"/>
  
  <!-- Main Diamond Logo -->
  <g transform="translate(256, 256)" filter="url(#glow)">
    <polygon points="0,-120 120,0 0,120 -120,0" 
             fill="none" stroke="url(#goldGrad)" stroke-width="4"/>
    <polygon points="0,-72 72,0 0,72 -72,0" 
             fill="none" stroke="url(#goldGrad)" stroke-width="2"/>
    <circle cx="0" cy="0" r="8" fill="#d4af37"/>
  </g>
  
  <!-- Corner Accent Diamonds -->
  <g filter="url(#glow)">
    <polygon points="80,80 100,100 80,120 60,100" fill="none" stroke="#f0dc8c" stroke-width="1.5"/>
    <polygon points="432,80 452,100 432,120 412,100" fill="none" stroke="#b76e79" stroke-width="1.5"/>
    <polygon points="80,432 100,412 80,392 60,412" fill="none" stroke="#e5e4e2" stroke-width="1.5"/>
    <polygon points="432,432 452,412 432,392 412,412" fill="none" stroke="#d4af37" stroke-width="1.5"/>
  </g>
  
  <!-- Connecting Lines -->
  <line x1="80" y1="80" x2="256" y2="256" stroke="#d4af37" stroke-width="0.5" opacity="0.3"/>
  <line x1="432" y1="80" x2="256" y2="256" stroke="#d4af37" stroke-width="0.5" opacity="0.3"/>
  <line x1="80" y1="432" x2="256" y2="256" stroke="#d4af37" stroke-width="0.5" opacity="0.3"/>
  <line x1="432" y1="432" x2="256" y2="256" stroke="#d4af37" stroke-width="0.5" opacity="0.3"/>
</svg>